<?xml version="1.0" standalone="no"?>
<!DOCTYPE svg PUBLIC "-//W3C//DTD SVG 1.1//EN" "http://www.w3.org/Graphics/SVG/1.1/DTD/svg11.dtd">
<svg width="960mm" height="1068mm" viewBox="-480 -534 960 1068" xmlns="http://www.w3.org/2000/svg" version="1.1">
<title>OpenSCAD Model</title>
<path d="
M 120.644,-343.229 L 126.808,-358.798 L 130.972,-375.016 L 133.07,-391.628 L 133.07,-408.372 L 130.972,-424.984
 L 126.808,-441.202 L 120.644,-456.771 L 112.577,-471.444 L 102.735,-484.99 L 91.2729,-497.196 L 78.3714,-507.869
 L 64.2338,-516.841 L 49.0833,-523.97 L 33.1587,-529.144 L 16.7111,-532.282 L -2.75735e-06,-533.333 L -16.7111,-532.282
 L -33.1587,-529.144 L -49.0833,-523.97 L -64.2338,-516.841 L -78.3714,-507.869 L -91.273,-497.196 L -102.735,-484.99
 L -112.577,-471.444 L -120.644,-456.771 L -126.808,-441.202 L -130.972,-424.984 L -133.07,-408.372 L -133.07,-391.628
 L -130.972,-375.016 L -126.808,-358.798 L -120.644,-343.229 L -115.267,-333.45 L 2.63189e-06,-400 L 115.267,-333.45
 z
M -346.41,-200 L -231.143,-266.55 L -236.924,-276.095 L -247.324,-289.217 L -259.287,-300.933 L -272.625,-311.056
 L -287.125,-319.428 L -302.561,-325.917 L -318.689,-330.42 L -335.253,-332.866 L -351.994,-333.216 L -368.646,-331.466
 L -384.948,-327.643 L -400.642,-321.806 L -415.48,-314.049 L -429.23,-304.492 L -441.673,-293.288 L -452.614,-280.613
 L -461.88,-266.667 L -469.325,-251.669 L -474.832,-235.856 L -478.313,-219.478 L -479.714,-202.792 L -479.013,-186.063
 L -476.221,-169.553 L -471.381,-153.524 L -464.571,-138.227 L -455.897,-123.905 L -445.496,-110.783 L -433.533,-99.0673
 L -420.196,-88.9438 L -405.695,-80.5718 L -390.259,-74.0831 L -374.132,-69.5803 L -357.567,-67.1343 L -346.41,-66.9006
 z
M -259.287,300.933 L -247.324,289.217 L -236.924,276.095 L -231.143,266.55 L -346.41,200 L -346.41,66.9006
 L -357.567,67.1343 L -374.132,69.5803 L -390.259,74.0832 L -405.695,80.5718 L -420.196,88.9438 L -433.533,99.0673
 L -445.496,110.783 L -455.897,123.905 L -464.571,138.227 L -471.381,153.524 L -476.221,169.553 L -479.013,186.063
 L -479.714,202.792 L -478.313,219.478 L -474.832,235.856 L -469.325,251.669 L -461.88,266.667 L -452.614,280.613
 L -441.673,293.288 L -429.23,304.492 L -415.48,314.049 L -400.642,321.806 L -384.948,327.643 L -368.646,331.466
 L -351.994,333.216 L -335.253,332.866 L -318.689,330.42 L -302.561,325.917 L -287.125,319.428 L -272.625,311.056
 z
M 433.533,-99.0673 L 445.496,-110.783 L 455.897,-123.905 L 464.571,-138.227 L 471.381,-153.524 L 476.221,-169.553
 L 479.013,-186.063 L 479.714,-202.792 L 478.313,-219.478 L 474.832,-235.856 L 469.325,-251.669 L 461.88,-266.667
 L 452.614,-280.613 L 441.673,-293.288 L 429.23,-304.492 L 415.48,-314.049 L 400.642,-321.806 L 384.948,-327.643
 L 368.646,-331.466 L 351.994,-333.216 L 335.253,-332.866 L 318.689,-330.42 L 302.561,-325.917 L 287.125,-319.428
 L 272.625,-311.056 L 259.287,-300.933 L 247.324,-289.217 L 236.924,-276.095 L 231.143,-266.55 L 346.41,-200
 L 346.41,-66.9006 L 357.567,-67.1343 L 374.132,-69.5803 L 390.259,-74.0832 L 405.695,-80.5718 L 420.196,-88.9438
 z
M 78.3714,507.869 L 91.273,497.196 L 102.735,484.99 L 112.577,471.444 L 120.644,456.771 L 126.808,441.202
 L 130.972,424.984 L 133.07,408.372 L 133.07,391.628 L 130.972,375.016 L 126.808,358.798 L 120.644,343.229
 L 115.267,333.45 L -2.63189e-06,400 L -115.267,333.45 L -120.644,343.229 L -126.808,358.798 L -130.972,375.016
 L -133.07,391.628 L -133.07,408.372 L -130.972,424.984 L -126.808,441.202 L -120.644,456.771 L -112.577,471.444
 L -102.735,484.99 L -91.2729,497.196 L -78.3714,507.869 L -64.2338,516.841 L -49.0833,523.97 L -33.1587,529.144
 L -16.7111,532.282 L 2.75735e-06,533.333 L 16.7111,532.282 L 33.1587,529.144 L 49.0833,523.97 L 64.2338,516.841
 z
M 429.23,304.492 L 441.673,293.288 L 452.614,280.613 L 461.88,266.667 L 469.325,251.669 L 474.832,235.856
 L 478.313,219.478 L 479.714,202.792 L 479.013,186.063 L 476.221,169.553 L 471.381,153.524 L 464.571,138.227
 L 455.897,123.905 L 445.496,110.783 L 433.533,99.0673 L 420.196,88.9438 L 405.695,80.5718 L 390.259,74.0831
 L 374.132,69.5803 L 357.567,67.1343 L 346.41,66.9006 L 346.41,200 L 231.143,266.55 L 236.924,276.095
 L 247.324,289.217 L 259.287,300.933 L 272.625,311.056 L 287.125,319.428 L 302.561,325.917 L 318.689,330.42
 L 335.253,332.866 L 351.994,333.216 L 368.646,331.466 L 384.948,327.643 L 400.642,321.806 L 415.48,314.049
 z
" fill="darkorange"/>
</svg>
